<mxfile host="app.diagrams.net" modified="2024-03-16T13:44:10.590Z" agent="Mozilla/5.0 (Windows NT 10.0; Win64; x64) AppleWebKit/537.36 (KHTML, like Gecko) Chrome/122.0.0.0 Safari/537.36 Edg/122.0.0.0" version="24.0.6" etag="AaUUIuqzSVFc0n75IhZr" type="github">
  <diagram name="Страница — 1" id="jGrfo79ocU52qPAJdcSC">
    <mxGraphModel>
      <root>
        <mxCell id="0" />
        <mxCell id="1" parent="0" />
      </root>
    </mxGraphModel>
  </diagram>
</mxfile>
